<svg width="166" height="165" viewBox="0 0 166 165" fill="none" xmlns="http://www.w3.org/2000/svg">
<g clip-path="url(#clip0_37_1518)">
<path d="M112.68 115.77C113.502 115.501 114.246 115.111 114.827 114.541C115.463 113.915 115.908 113.095 116.211 112.17C126.236 114.136 136.507 111.018 143.74 103.784C148.874 98.65 152.019 91.8516 152.594 84.643C153.347 75.6855 150.131 66.9 143.771 60.5397C143.11 59.8783 142.385 59.2219 141.618 58.589C134.493 52.6859 125.224 50.3745 116.142 52.2141C115.893 51.6454 115.576 51.1266 115.156 50.6997L115.128 50.6716C114.619 50.1619 113.98 49.7807 113.266 49.4945C115.15 40.3647 112.845 31.0436 106.911 23.8829C106.279 23.1153 105.622 22.391 104.961 21.7292C98.6144 15.3829 89.833 12.1635 80.8676 12.8966C73.6476 13.4821 66.8458 16.6298 61.7159 21.7597C54.5384 28.9372 51.3998 39.1642 53.3001 49.141C52.5422 49.4082 51.8586 49.7845 51.3161 50.3175C50.6421 50.9796 50.1849 51.8595 49.8816 52.851C39.8232 50.8474 29.5189 53.9567 22.2598 61.2159C17.1295 66.3462 13.9817 73.148 13.3966 80.3676C12.6639 89.3334 15.8833 98.1148 22.2292 104.461C22.8894 105.121 23.6138 105.777 24.3818 106.411C31.5001 112.31 40.7748 114.626 49.8611 112.793C50.1102 113.359 50.4262 113.875 50.844 114.301L50.8721 114.329C51.3827 114.839 52.0225 115.221 52.739 115.507C50.848 124.632 53.1557 133.958 59.0883 141.118C59.7235 141.887 60.3799 142.611 61.0398 143.271C67.4 149.632 76.1848 152.847 85.1408 152.095C92.3514 151.519 99.1501 148.374 104.284 143.24C111.509 136.016 114.624 125.775 112.68 115.77ZM106.681 139.164L99.3274 133.682C103.13 128.46 104.266 121.774 102.304 115.481C102.8 115.554 103.275 115.628 103.703 115.704L103.84 115.728C105.465 116.011 109.01 116.623 111.882 115.988C113.458 124.188 111.536 132.538 106.681 139.164ZM84.3 141.299C78.6383 141.782 73.0899 139.81 69.003 135.889L82.6762 122.216L96.332 135.872C93.0733 138.996 88.8196 140.921 84.3 141.299ZM63.9231 115.506C67.7581 114.974 73.3839 114.537 74.886 114.426L82.0944 121.634L68.4237 135.305C63.4173 130.08 61.672 122.401 63.9231 115.506ZM30.1973 97.079L43.8684 83.4079L51.076 90.6155C50.9567 92.26 50.5119 97.7151 49.9476 101.602C42.9764 103.863 35.4622 102.131 30.1973 97.079ZM24.201 81.1996C24.5779 76.6926 26.5068 72.4415 29.6375 69.177L43.2865 82.826L29.6132 96.4993C25.6911 92.4122 23.718 86.8629 24.201 81.1996ZM62.1558 49.9407L62.296 49.9649C66.2626 50.6713 73.6713 51.2518 75.1777 51.3546L78.9362 55.113L55.7549 78.2943L51.9953 74.5347C51.9225 73.5181 51.4937 67.6942 50.9537 63.6172C50.852 62.8469 50.7497 62.1719 50.6515 61.6102C50.1199 58.59 49.574 53.1824 51.8926 50.9048C54.2719 48.5672 60.206 49.601 62.1558 49.9407ZM81.708 23.6919C87.3779 23.227 92.9242 25.2032 96.9995 29.1133L83.3334 42.7864L69.6809 29.1338C72.9503 25.9997 77.203 24.0691 81.708 23.6919ZM102.086 49.4933C98.2562 50.0245 92.6349 50.4616 91.1212 50.574L83.9153 43.3682L97.579 29.6975C102.656 34.9871 104.374 42.5081 102.086 49.4933ZM91.4215 65.5324L94.1184 62.8356L104.057 72.7738L101.36 75.4706L101.942 76.0525L104.638 73.3556L108.878 77.5953L106.181 80.2921L106.763 80.874L109.46 78.1772L113.707 82.4246L102.475 93.6572L99.7959 90.9782L107.903 82.8711L108.027 82.8708L108.027 82.7472L108.332 82.4426L108.026 82.1374L108.026 82.0475L107.937 82.0477L83.6535 57.7646L83.6537 57.7107L83.5994 57.7105L83.2299 57.341L82.8619 57.7091L82.8296 57.709L82.8294 57.7415L80.3686 60.2023L77.6896 57.5234L83.2479 51.9651L93.5366 62.2538L90.8397 64.9506L91.4215 65.5324ZM135.805 67.9232L122.138 81.5906L114.926 74.3791L114.925 74.3807C115.043 72.7675 115.489 67.2823 116.053 63.3985C123.025 61.1372 130.54 62.8692 135.805 67.9232ZM141.809 83.7916C141.43 88.3092 139.503 92.5648 136.375 95.8282L122.72 82.1724L136.389 68.503C140.307 72.587 142.283 78.1323 141.809 83.7916ZM90.6012 114.306L90.7566 114.316C91.6198 114.369 97.1921 114.791 101.407 115.355C103.745 122.378 102.021 129.964 96.9111 135.285L83.259 121.633L90.5937 114.298L90.6012 114.306ZM90.9645 113.504L87.3782 109.918L110.559 86.7363L114.147 90.3238C114.22 91.3435 114.651 97.2003 115.194 101.28C115.294 102.037 115.394 102.699 115.491 103.248C116.022 106.269 116.567 111.677 114.25 113.953C111.869 116.292 105.934 115.257 103.983 114.917L103.847 114.893C99.8572 114.183 92.4672 113.606 90.9645 113.504ZM59.5245 82.9637L82.7427 82.9193L82.6629 106.102L59.5245 82.9637ZM71.422 69.1489L68.743 66.47L77.1069 58.1061L79.7859 60.7851L71.422 69.1489ZM61.9029 73.31L68.1603 67.0526L70.8393 69.7316L62.1188 78.452L59.4399 75.7731L61.9029 73.31ZM82.8254 58.9092L82.7456 82.0959L59.5944 82.1402L82.8254 58.9092ZM83.6494 58.926L106.773 82.0499L83.5696 82.0944L83.6494 58.926ZM83.5668 82.9177L106.737 82.8733L83.487 106.123L83.5668 82.9177ZM99.2132 91.5609L101.892 94.2399L90.5333 105.599L87.8544 102.92L99.2132 91.5609ZM115.98 100.936C115.405 96.5095 114.962 90.1766 114.958 90.1117L114.947 89.9582L114.94 89.9517L122.137 82.7551L135.789 96.4074C130.501 101.488 122.968 103.218 115.98 100.936ZM114.597 75.2152L121.555 82.1733L114.358 89.3699L111.142 86.1536L114.872 82.4238L111.13 78.682L114.597 75.2152ZM83.2487 50.8006L79.5189 54.5304L76.138 51.1495L83.3328 43.951L90.2848 50.903L86.818 54.3698L83.2487 50.8006ZM82.751 43.3692L75.5562 50.5677L75.5411 50.5526L75.3857 50.5428C74.5071 50.488 68.7753 50.0524 64.5515 49.4776C62.2959 42.5079 64.0337 34.9957 69.1017 29.7199L82.751 43.3692ZM50.1867 64.1133C50.7497 68.5291 51.1803 74.6834 51.1847 74.7468L51.1956 74.9003L51.2039 74.9086L43.8692 82.2433L30.2243 68.5984C35.4985 63.5434 43.2565 61.7941 50.1867 64.1133ZM51.4068 89.781L44.4511 82.8252L51.7858 75.4905L55.1722 78.877L51.4427 82.6066L55.0119 86.1758L51.4068 89.781ZM52.6072 82.6057L58.8572 76.3557L61.5362 79.0347L58.4285 82.1424L58.4028 82.1424L58.4029 82.168L57.9832 82.5876L60.532 85.1364L57.835 87.8334L52.6072 82.6057ZM61.1138 85.7183L70.3557 94.9602L67.6587 97.6572L58.4168 88.4153L61.1138 85.7183ZM70.9375 95.5421L82.6588 107.263L82.6587 107.301L82.6967 107.301L83.0848 107.689L83.4713 107.303L83.4829 107.303L83.4829 107.291L87.2717 103.502L89.9506 106.181L83.0667 113.065L68.2405 98.2391L70.9375 95.5421ZM83.066 114.23L86.7955 110.5L90.0118 113.716L82.6771 121.051L75.7191 114.093L79.3242 110.488L83.066 114.23ZM116.433 111.373C117.064 108.65 116.685 105.283 116.302 103.104C116.237 102.737 116.17 102.299 116.103 101.832C122.361 103.747 128.999 102.603 134.188 98.8231L139.668 106.178C133.029 111.042 124.652 112.967 116.433 111.373ZM140.334 105.692L134.843 98.3229C135.474 97.8231 136.088 97.2924 136.668 96.7121C140.008 93.3719 142.097 88.9667 142.585 84.2703L151.732 84.9813C151.089 91.8455 148.058 98.3029 143.158 103.202C142.263 104.098 141.319 104.928 140.334 105.692ZM151.797 84.1601L142.652 83.4494C143.028 77.5536 140.873 71.8054 136.689 67.6218C136.322 67.2551 135.943 66.9068 135.555 66.5722L141.409 59.4972C142.037 60.0294 142.639 60.5727 143.188 61.1223C149.278 67.2121 152.398 75.5875 151.797 84.1601ZM140.773 58.9741L134.916 66.0538C129.657 61.8705 122.718 60.5217 116.189 62.5012C116.227 62.266 116.266 62.0384 116.304 61.8214L116.329 61.68C116.636 59.9318 117.328 55.9579 116.432 52.998C125.094 51.2813 133.917 53.4474 140.773 58.9741ZM114.568 51.2771C116.903 53.653 115.861 59.5886 115.518 61.5389L115.494 61.6791C115.412 62.1344 115.332 62.6334 115.254 63.1634C114.65 67.2796 114.175 73.2891 114.086 74.5625L110.548 78.1002L87.3998 54.9517L90.9384 51.4132C92.0033 51.3355 98.3419 50.8594 102.432 50.2773C102.949 50.2034 103.432 50.1284 103.865 50.0511C106.876 49.5171 112.257 48.9656 114.545 51.2536L114.568 51.2771ZM112.478 49.2279C109.681 48.4277 106.034 48.8303 103.722 49.2407C103.491 49.2815 103.243 49.322 102.985 49.3622C104.99 42.8249 103.656 35.8822 99.4622 30.6035L106.528 24.7302C112.088 31.628 114.247 40.5111 112.478 49.2279ZM104.378 22.3118C104.928 22.8623 105.473 23.4652 106.005 24.0943L98.9441 29.9637C98.6046 29.5694 98.2512 29.1839 97.8785 28.8112C93.7045 24.6372 87.9569 22.4819 82.0528 22.849L81.3417 13.695C89.9237 13.1111 98.2995 16.2333 104.378 22.3118ZM80.5205 13.76L81.2317 22.9149C76.5462 23.4025 72.1441 25.4939 68.797 28.8409C68.213 29.425 67.6787 30.0426 67.1762 30.6787L59.8094 25.1684C60.5736 24.1823 61.4024 23.2369 62.2977 22.3416C67.1914 17.4479 73.6493 14.4145 80.5205 13.76ZM59.3232 25.8334L66.6773 31.3342C62.9152 36.5058 61.7672 43.1155 63.6556 49.3497C63.2272 49.2856 62.8138 49.2205 62.4395 49.1539L62.2981 49.1294C60.6434 48.8412 56.9936 48.2112 54.0963 48.9079C52.5635 40.7437 54.5043 32.4207 59.3232 25.8334ZM49.676 53.6507C49.0968 56.3437 49.4648 59.6187 49.8406 61.7536C49.9145 62.1759 49.9906 62.6668 50.0675 63.2148C43.8537 61.2707 37.052 62.4255 31.8315 66.1899L26.3364 58.8187C33.0043 53.9344 41.42 52.0187 49.676 53.6507ZM25.6702 59.304L31.1744 66.6873C30.5376 67.1868 29.9207 67.7173 29.341 68.297C25.998 71.6399 23.9095 76.0419 23.4235 80.7283L14.2604 80.0165C14.9153 73.1471 17.9489 66.6905 22.8416 61.7978C23.7387 60.9007 24.684 60.0691 25.6702 59.304ZM14.1953 80.8376L23.3566 81.5493C22.9737 87.4449 25.1259 93.1932 29.3113 97.3786C29.6876 97.755 30.0777 98.111 30.4765 98.4534L24.595 105.506C23.9647 104.972 23.3615 104.428 22.8119 103.878C16.7324 97.7985 13.6102 89.421 14.1953 80.8376ZM25.2307 106.029L31.1159 98.9717C36.3705 103.135 43.2946 104.474 49.8101 102.499C49.7723 102.733 49.7343 102.964 49.6956 103.179L49.6713 103.317C49.3639 105.067 48.6706 109.048 49.5704 112.01C40.9054 113.719 32.08 111.549 25.2307 106.029ZM51.432 113.723C49.0963 111.346 50.1395 105.409 50.4828 103.458L50.5064 103.322C51.2227 99.3286 51.8102 91.9399 51.9144 90.4371L55.5939 86.7576L78.7424 109.906L75.0617 113.587C74.0056 113.664 67.7659 114.133 63.6753 114.708C63.1176 114.786 62.5986 114.867 62.1353 114.95C59.1242 115.483 53.7424 116.034 51.4555 113.747L51.432 113.723ZM53.5271 115.773C56.3228 116.571 59.9671 116.17 62.278 115.76C62.5116 115.719 62.7608 115.678 63.0213 115.637C61.0572 122.086 62.4101 129.136 66.5349 134.383L59.4728 140.272C53.9125 133.374 51.7519 124.487 53.5271 115.773ZM61.6224 142.689C61.0735 142.14 60.5294 141.537 59.9957 140.907L67.0505 135.024C67.3918 135.424 67.7469 135.814 68.1218 136.189C72.3078 140.375 78.0571 142.527 83.9529 142.144L84.6643 151.298C76.0912 151.899 67.7137 148.78 61.6224 142.689ZM85.4854 151.232L84.7739 142.077C89.4717 141.59 93.8758 139.504 97.2121 136.168C97.7942 135.586 98.3264 134.971 98.8274 134.337L106.196 139.83C105.431 140.816 104.599 141.761 103.702 142.658C98.8044 147.556 92.349 150.587 85.4854 151.232Z" fill="#271F0C"/>
</g>
<defs>
<clipPath id="clip0_37_1518">
<rect width="116" height="117" fill="white" transform="translate(83.3536 0.12207) rotate(45)"/>
</clipPath>
</defs>
</svg>
