<svg width="591" height="187" viewBox="0 0 591 187" fill="none" xmlns="http://www.w3.org/2000/svg">
<g clip-path="url(#clip0_37_1318)">
<path d="M498.143 102.248L499.257 102.869L502.6 99.8905C508.791 94.4307 518.695 85.1241 521.791 85.1241C522.286 85.1241 522.533 85.3723 522.533 85.9927C522.533 91.5766 497.772 120.737 493.067 127.686H500.743C502.29 125.514 503.714 123.467 505.076 121.482C515.476 109.942 534.048 89.219 543.705 85C544.137 84.8133 544.695 84.6892 545.19 84.6892C545.871 84.6892 546.428 84.9374 546.428 85.6204C546.428 91.2044 521.419 120.737 516.714 127.686H524.39L528.166 122.226C539.99 109.383 564.505 83.0146 572.924 83.0146C573.543 83.0146 573.914 83.2628 573.914 83.8832C573.914 87.854 546.305 112.175 546.305 127.686C546.305 129.92 547.419 130.664 549.276 130.664C554.971 130.664 565.309 122.784 574.162 114.905L591 99.8905L590.257 98.8978L573.419 113.912C564.504 121.854 554.724 129.423 549.276 129.423C548.162 129.423 547.543 128.927 547.543 127.686C547.543 121.978 575.152 97.5328 575.152 83.635C575.152 82.5182 574.533 81.7737 572.924 81.7737C565.309 81.7737 545.623 102.063 532.375 116.083C538.257 107.397 548.533 91.6381 548.533 85.3723C548.533 84.2555 547.914 83.511 546.305 83.511C538.937 83.511 521.914 101.565 509.471 115.029C514.981 107.025 524.638 92.9416 524.638 85.7445C524.638 84.3796 524.019 83.7591 523.028 83.7591C517.581 83.7591 506.314 94.927 501.857 98.8978L498.143 102.248ZM514.238 54.4745H508.791L504.829 60.8029L505.572 61.0511L514.238 54.4745ZM484.524 85.6204C484.524 85.4963 468.244 106.28 463.848 112.547C461.372 116.083 457.905 123.467 457.905 127.686C457.905 129.92 459.019 130.664 460.877 130.664C466.572 130.664 476.91 122.784 485.762 114.905L502.6 99.8905L501.857 98.8978L485.019 113.912C476.105 121.854 466.324 129.423 460.877 129.423C459.762 129.423 459.143 128.927 459.143 127.686C459.143 127.314 461.991 123.219 490.219 85.6204H484.524ZM440.821 69.8613C438.097 69.8613 436.859 68 436.859 65.0219C436.859 54.7226 451.84 32.2628 479.758 27.6715C479.139 42.0031 455.802 69.8613 440.821 69.8613ZM497.03 50.8759C478.83 55.0949 468.059 69.7987 456.544 86.1168C442.925 105.412 416.802 128.555 388.449 128.555C373.469 128.555 355.021 121.358 355.021 104.482C355.021 85.6204 379.101 71.66 401.945 71.4118C400.954 76.0031 400.459 80.6569 400.459 85.2482C400.459 91.7007 401.449 98.1533 403.554 104.109L404.792 103.613C402.687 97.6569 401.697 91.4526 401.697 85.2482C401.697 80.6569 402.192 76.0031 403.183 71.4118C415.377 71.5359 426.768 75.7549 434.383 85.1241C436.859 88.2263 437.23 89.3431 437.23 91.0803C437.23 91.9489 437.106 92.9416 437.106 94.4307C437.106 95.4234 437.725 96.0438 438.468 96.0438C439.83 96.0438 440.449 95.2993 440.449 94.1825C440.449 91.0803 436.24 85.2482 435.373 84.1314C427.944 74.7622 415.935 70.3577 403.492 70.1709C410.364 41.0104 435.806 14.7664 463.849 14.7664C474.868 14.7664 479.51 19.6673 479.758 26.368C451.097 31.0219 435.621 54.2263 435.621 65.0219C435.621 68.7445 437.602 71.1022 441.068 71.1022C461.806 71.1022 480.749 44.2366 480.996 27.486C483.906 27.0511 486.939 26.8029 490.097 26.8029C510.154 26.8029 526.373 41.3212 546.677 41.3212C563.02 41.3212 573.049 30.2774 573.049 19.9781C573.049 10.4234 565.001 1.48905 545.935 1.48905C528.725 1.48905 513.434 10.0511 496.906 10.0511C486.878 10.0511 475.487 7.69343 466.573 0L465.83 0.992701C474.992 8.93431 486.63 11.292 496.906 11.292C513.929 11.292 529.282 2.72993 545.935 2.72993C564.011 2.72993 571.811 11.1679 571.811 19.9781C571.811 29.781 562.277 40.0803 546.677 40.0803C526.497 40.0803 510.401 25.562 490.097 25.562C486.939 25.562 483.906 25.8102 480.996 26.2451C480.687 18.8613 475.735 13.5255 463.849 13.5255C435.125 13.5255 409.126 40.4526 402.254 70.1095C378.854 70.295 353.783 84.7518 353.783 104.482C353.783 125.825 383.373 132.277 399.221 132.277C426.087 132.277 440.325 113.416 457.411 87.854C468.306 71.5985 479.449 56.2117 497.278 52.1168L497.03 50.8759ZM235.236 131.161C232.017 131.161 229.665 128.927 229.665 125.825C229.665 115.65 246.503 105.04 254.922 100.015C258.636 97.781 262.722 95.2993 266.869 92.5693C267.116 95.4848 267.488 98.3388 267.859 101.131C252.507 113.292 242.974 131.161 235.236 131.161ZM270.769 128.431C270.769 148.409 256.036 167.022 241.427 167.022C238.084 167.022 235.608 165.036 235.608 162.058C235.608 153.62 250.712 136.434 270.583 123.28C270.707 125.018 270.769 126.693 270.769 128.431ZM269.16 88.3504C269.16 71.8467 276.96 40.0803 290.579 40.0803C295.779 40.0803 297.265 46.4088 297.265 50.3796C297.265 66.4483 283.274 79.9739 269.16 89.8394V88.3504ZM279.56 137.117C286.122 139.847 293.055 141.088 299.865 141.088C317.074 141.088 339.236 131.285 339.236 116.022C339.236 105.971 325.616 104.606 318.56 104.606C303.084 104.606 286.183 111.492 271.574 120.675C271.202 115.339 270.583 110.066 270.088 104.606C278.074 97.4088 287.236 91.5766 298.626 91.5766C299.741 91.5766 300.731 91.5766 301.845 91.7007L302.093 90.4599C300.36 90.2117 298.626 90.0876 296.893 90.0876C286.122 90.0876 277.207 94.1825 269.655 99.7664C269.408 96.9124 269.221 94.0584 269.16 91.0177C284.016 80.8425 298.503 67.3169 298.503 50.5037C298.503 44.5474 296.026 38.8394 289.96 38.8394C275.227 38.8394 266.312 62.4161 266.312 81.2774C266.312 84.8133 266.436 88.1636 266.745 91.4526C262.164 94.4921 257.583 97.098 253.684 99.3942C243.097 105.66 228.303 115.401 228.303 125.949C228.303 130.664 232.389 132.277 236.103 132.277C246.564 132.277 256.097 117.696 268.54 105.971C269.345 111.182 270.088 116.27 270.459 121.419C249.846 134.696 234.122 152.565 234.122 162.182C234.122 167.146 238.95 169.007 242.912 169.007C259.503 169.007 271.884 153.62 271.884 128.555C271.884 126.569 271.821 124.521 271.697 122.536C286.307 113.105 303.393 105.847 318.931 105.847C326.112 105.847 337.874 107.212 337.874 115.898C337.874 127.934 320.541 139.847 299.865 139.847C292.684 139.847 285.998 138.482 280.055 136L279.56 137.117ZM178.098 111.058L176.983 112.609C177.417 110.934 177.665 109.383 177.85 108.08C178.16 108.762 178.469 109.445 178.779 110.066L178.098 111.058ZM226.136 41.073C232.141 33.0688 238.145 28.292 240.745 28.292C241.612 28.292 241.983 28.7883 241.983 29.781C241.983 32.0146 240.002 36.6058 235.421 43.4307C227.312 55.5298 212.455 69.9228 198.031 83.1387C209.174 66.0146 221.865 46.781 226.136 41.073ZM137.612 183.774C136.622 184.456 134.022 185.883 132.412 185.883C131.669 185.883 131.174 185.511 131.174 184.642C131.174 181.044 141.203 165.594 144.669 160.321C154.45 145.492 164.046 132.774 173.208 120.054C166.274 141.46 150.117 175.397 137.612 183.774ZM176.86 102.248L177.974 102.869L191.532 90.708C186.332 98.6496 181.936 105.412 179.522 109.01C178.841 107.769 178.098 106.405 177.479 104.854L176.736 104.978C176.612 107.521 175.808 111.368 174.446 116.022C163.612 130.229 151.789 140.715 142.069 155.73C138.107 161.81 129.317 177.073 129.317 184.27C129.317 186.38 130.431 187 131.917 187C134.145 187 137.056 185.511 138.231 184.642C152.903 173.847 170.36 136.372 176.117 116.022L179.522 111.182C182.183 115.463 185.402 117.387 188.993 117.387C192.583 117.387 197.04 114.967 201.126 111.307L213.879 99.8905L213.136 98.8978L200.383 110.314C196.174 114.098 191.964 116.27 188.993 116.27C185.589 116.27 182.741 114.098 180.202 110.127C182.926 106.156 188.621 97.4088 195.246 87.3577C209.608 74.2044 227.869 56.6454 236.412 44.1752C241.117 37.2877 242.974 32.3869 242.974 29.6569C242.974 27.9197 242.231 27.0511 240.869 27.0511C238.021 27.0511 231.212 32.5109 225.145 40.3285C220.688 46.0365 207.317 66.511 196.05 83.8832L194.379 86.4264C189.551 90.8321 184.846 94.9885 180.574 98.8978L176.86 102.248ZM145.598 111.058L144.484 112.609C144.918 110.934 145.166 109.383 145.351 108.08C145.661 108.762 145.97 109.445 146.28 110.066L145.598 111.058ZM193.636 41.073C199.642 33.0688 205.646 28.292 208.246 28.292C209.112 28.292 209.484 28.7883 209.484 29.781C209.484 32.0146 207.503 36.6058 202.922 43.4307C194.813 55.5298 179.956 69.9228 165.532 83.1387C176.674 66.0146 189.365 46.781 193.636 41.073ZM105.113 183.774C104.122 184.456 101.522 185.883 99.9128 185.883C99.1699 185.883 98.6747 185.511 98.6747 184.642C98.6747 181.044 108.703 165.594 112.17 160.321C121.951 145.492 131.547 132.774 140.708 120.054C133.775 141.46 117.618 175.397 105.113 183.774ZM144.36 102.248L145.475 102.869L159.032 90.708C153.832 98.6496 149.436 105.412 147.023 109.01C146.341 107.769 145.598 106.405 144.979 104.854L144.236 104.978C144.113 107.521 143.309 111.368 141.947 116.022C131.113 130.229 119.29 140.715 109.57 155.73C105.608 161.81 96.8176 177.073 96.8176 184.27C96.8176 186.38 97.9319 187 99.4176 187C101.646 187 104.556 185.511 105.732 184.642C120.404 173.847 137.861 136.372 143.617 116.022L147.023 111.182C149.684 115.463 152.903 117.387 156.494 117.387C160.084 117.387 164.541 114.967 168.627 111.307L181.379 99.8905L180.636 98.8978L167.884 110.314C163.674 114.098 159.465 116.27 156.494 116.27C153.089 116.27 150.242 114.098 147.703 110.127C150.427 106.156 156.122 97.4088 162.747 87.3577C177.108 74.2044 195.37 56.6454 203.912 44.1752C208.617 37.2877 210.474 32.3869 210.474 29.6569C210.474 27.9197 209.732 27.0511 208.37 27.0511C205.522 27.0511 198.712 32.5109 192.646 40.3285C188.189 46.0365 174.817 66.511 163.551 83.8832L161.88 86.4264C157.051 90.8321 152.347 94.9885 148.075 98.8978L144.36 102.248ZM160.455 54.4745H155.008L151.046 60.8029L151.789 61.0511L160.455 54.4745ZM130.741 85.6204C130.741 85.4963 114.461 106.28 110.065 112.547C107.589 116.083 104.122 123.467 104.122 127.686C104.122 129.92 105.237 130.664 107.094 130.664C112.789 130.664 123.128 122.784 131.979 114.905L148.817 99.8905L148.075 98.8978L131.237 113.912C122.322 121.854 112.541 129.423 107.094 129.423C105.979 129.423 105.36 128.927 105.36 127.686C105.36 127.314 108.208 123.219 136.436 85.6204H130.741ZM87.0378 69.8613C84.314 69.8613 83.0759 68 83.0759 65.0219C83.0759 54.7226 98.0568 32.2628 125.975 27.6715C125.356 42.0031 102.019 69.8613 87.0378 69.8613ZM143.247 50.8759C125.047 55.0949 114.276 69.7987 102.762 86.1168C89.1426 105.412 63.0189 128.555 34.6666 128.555C19.6857 128.555 1.23809 121.358 1.23809 104.482C1.23809 85.6204 25.3196 71.66 48.1618 71.4118C47.1713 76.0031 46.676 80.6569 46.676 85.2482C46.676 91.7007 47.6665 98.1533 49.7713 104.109L51.0094 103.613C48.9046 97.6569 47.9141 91.4526 47.9141 85.2482C47.9141 80.6569 48.4094 76.0031 49.3998 71.4118C61.5956 71.5359 72.9861 75.7549 80.5998 85.1241C83.0759 88.2263 83.4474 89.3431 83.4474 91.0803C83.4474 91.9489 83.3236 92.9416 83.3236 94.4307C83.3236 95.4234 83.9426 96.0438 84.6854 96.0438C86.0473 96.0438 86.6664 95.2993 86.6664 94.1825C86.6664 91.0803 82.4569 85.2482 81.5902 84.1314C74.1617 74.7622 62.1522 70.3577 49.71 70.1709C56.5808 41.0104 82.023 14.7664 110.066 14.7664C121.085 14.7664 125.729 19.6673 125.975 26.368C97.314 31.0219 81.8378 54.2263 81.8378 65.0219C81.8378 68.7445 83.8188 71.1022 87.2854 71.1022C108.024 71.1022 126.967 44.2366 127.213 27.486C130.123 27.0511 133.157 26.8029 136.314 26.8029C156.371 26.8029 172.59 41.3212 192.895 41.3212C209.237 41.3212 219.266 30.2774 219.266 19.9781C219.266 10.4234 211.218 1.48905 192.152 1.48905C174.942 1.48905 159.651 10.0511 143.123 10.0511C133.095 10.0511 121.704 7.69343 112.79 0L112.047 0.992701C121.209 8.93431 132.847 11.292 143.123 11.292C160.147 11.292 175.499 2.72993 192.152 2.72993C210.228 2.72993 218.028 11.1679 218.028 19.9781C218.028 29.781 208.495 40.0803 192.895 40.0803C172.714 40.0803 156.619 25.562 136.314 25.562C133.157 25.562 130.123 25.8102 127.213 26.2451C126.904 18.8613 121.952 13.5255 110.066 13.5255C81.3426 13.5255 55.3427 40.4526 48.4707 70.1095C25.0708 70.295 0 84.7518 0 104.482C0 125.825 29.5904 132.277 45.438 132.277C72.3045 132.277 86.5426 113.416 103.628 87.854C114.523 71.5985 125.666 56.2117 143.495 52.1168L143.247 50.8759Z" fill="#121212"/>
</g>
<defs>
<clipPath id="clip0_37_1318">
<rect width="591" height="187" fill="white"/>
</clipPath>
</defs>
</svg>
