<svg width="46" height="46" viewBox="0 0 46 46" fill="none" xmlns="http://www.w3.org/2000/svg">
<g clip-path="url(#clip0_90_33)">
<path d="M0.5 23.2656C0.5 10.8392 10.5736 0.765625 23 0.765625C35.4264 0.765625 45.5 10.8392 45.5 23.2656C45.5 35.692 35.4264 45.7656 23 45.7656C10.5736 45.7656 0.5 35.692 0.5 23.2656Z" fill="#E1E1E1"/>
<path d="M23 45.228C35.1295 45.228 44.9624 35.3951 44.9624 23.2656C44.9624 11.1361 35.1295 1.30322 23 1.30322C10.8705 1.30322 1.0376 11.1361 1.0376 23.2656C1.0376 35.3951 10.8705 45.228 23 45.228Z" stroke="#271F0C" stroke-miterlimit="10"/>
<path d="M23 37.9376C31.1031 37.9376 37.672 31.3687 37.672 23.2656C37.672 15.1625 31.1031 8.59357 23 8.59357C14.8969 8.59357 8.32797 15.1625 8.32797 23.2656C8.32797 31.3687 14.8969 37.9376 23 37.9376Z" stroke="#271F0C" stroke-miterlimit="10"/>
<path d="M37.672 23.2656H8.32797" stroke="#271F0C" stroke-miterlimit="10"/>
<path d="M23 8.59357V37.9376" stroke="#271F0C" stroke-miterlimit="10"/>
<path d="M23 31.4828C27.5382 31.4828 31.2172 27.8039 31.2172 23.2657C31.2172 18.7274 27.5382 15.0485 23 15.0485C18.4618 15.0485 14.7828 18.7274 14.7828 23.2657C14.7828 27.8039 18.4618 31.4828 23 31.4828Z" fill="#271F0C"/>
</g>
<defs>
<clipPath id="clip0_90_33">
<path d="M0.5 23.2656C0.5 10.8392 10.5736 0.765625 23 0.765625C35.4264 0.765625 45.5 10.8392 45.5 23.2656C45.5 35.692 35.4264 45.7656 23 45.7656C10.5736 45.7656 0.5 35.692 0.5 23.2656Z" fill="white"/>
</clipPath>
</defs>
</svg>
