<svg width="56" height="57" viewBox="0 0 56 57" fill="none" xmlns="http://www.w3.org/2000/svg">
<g clip-path="url(#clip0_37_1484)">
<path d="M0.308594 28.457C0.308594 13.1635 12.7065 0.765625 28 0.765625C43.2935 0.765625 55.6914 13.1635 55.6914 28.457C55.6914 43.7506 43.2935 56.1484 28 56.1484C12.7065 56.1484 0.308594 43.7506 0.308594 28.457Z" fill="#E1E1E1"/>
<path d="M18.6203 18.9883V10.7906C18.6203 10.7906 21.8687 7.05222 23.2328 5.10472C23.8925 4.16162 26.0298 1.24692 28.1385 1.26572C30.1648 1.28382 32.1649 4.19852 32.8023 5.10472C34.1593 7.05222 37.0632 10.4319 37.3796 10.7906V18.9883H18.6203Z" stroke="#271F0C" stroke-miterlimit="10"/>
<path d="M37.3797 37.9258V46.1235C37.3797 46.1235 34.1313 49.8619 32.7672 51.8094C32.1075 52.7525 29.9702 55.6672 27.8615 55.6484C25.8352 55.6303 23.8351 52.7156 23.1977 51.8094C21.8407 49.8619 18.9368 46.4822 18.6204 46.1235V37.9258H37.3797Z" stroke="#271F0C" stroke-miterlimit="10"/>
<path d="M37.4687 19.0774H45.6664C45.6664 19.0774 49.4048 22.3258 51.3523 23.6899C52.2954 24.3496 55.2101 26.4869 55.1913 28.5956C55.1732 30.6219 52.2585 32.622 51.3523 33.2594C49.4048 34.6164 46.0251 37.5203 45.6664 37.8367H37.4687V19.0774Z" stroke="#271F0C" stroke-miterlimit="10"/>
<path d="M18.5313 37.8367H10.3336C10.3336 37.8367 6.59519 34.5883 4.64769 33.2242C3.70459 32.5645 0.789894 30.4272 0.808694 28.3185C0.826794 26.2922 3.74149 24.2921 4.64769 23.6547C6.59519 22.2977 9.97489 19.3938 10.3336 19.0774H18.5313V37.8367Z" stroke="#271F0C" stroke-miterlimit="10"/>
<path d="M33.3419 23.1152H22.6582V33.7989H33.3419V23.1152Z" fill="#271F0C"/>
<path d="M18.914 18.9883L37.6733 37.9257" stroke="#271F0C" stroke-miterlimit="10"/>
<path d="M37.0861 18.9883L18.3267 37.9257" stroke="#271F0C" stroke-miterlimit="10"/>
</g>
<defs>
<clipPath id="clip0_37_1484">
<path d="M0.308594 28.457C0.308594 13.1635 12.7065 0.765625 28 0.765625C43.2935 0.765625 55.6914 13.1635 55.6914 28.457C55.6914 43.7506 43.2935 56.1484 28 56.1484C12.7065 56.1484 0.308594 43.7506 0.308594 28.457Z" fill="white"/>
</clipPath>
</defs>
</svg>
