<svg width="56" height="56" viewBox="0 0 56 56" fill="none" xmlns="http://www.w3.org/2000/svg">
<g clip-path="url(#clip0_37_1381)">
<rect x="0.308594" y="0.382812" width="55.3828" height="55.3828" rx="27.6914" fill="#E1E1E1"/>
<path d="M18.6203 18.6055V10.4078C18.6203 10.4078 21.8687 6.6694 23.2328 4.7219C23.8925 3.7788 26.0298 0.864103 28.1385 0.882903C30.1648 0.901003 32.1649 3.8157 32.8023 4.7219C34.1593 6.6694 37.0632 10.0491 37.3796 10.4078V18.6055H18.6203Z" stroke="#271F0C" stroke-miterlimit="10"/>
<path d="M37.3797 37.5428V45.7405C37.3797 45.7405 34.1313 49.4789 32.7672 51.4264C32.1075 52.3695 29.9702 55.2842 27.8615 55.2654C25.8352 55.2473 23.8351 52.3326 23.1977 51.4264C21.8407 49.4789 18.9368 46.0992 18.6204 45.7405V37.5428H37.3797Z" stroke="#271F0C" stroke-miterlimit="10"/>
<path d="M37.4687 18.6945H45.6664C45.6664 18.6945 49.4048 21.9429 51.3523 23.307C52.2954 23.9667 55.2101 26.104 55.1913 28.2127C55.1732 30.239 52.2585 32.2391 51.3523 32.8765C49.4048 34.2335 46.0251 37.1374 45.6664 37.4538H37.4687V18.6945Z" stroke="#271F0C" stroke-miterlimit="10"/>
<path d="M18.5313 37.4539H10.3336C10.3336 37.4539 6.59519 34.2055 4.64769 32.8414C3.70459 32.1817 0.789894 30.0444 0.808694 27.9357C0.826794 25.9094 3.74149 23.9093 4.64769 23.2719C6.59519 21.9149 9.97489 19.011 10.3336 18.6946H18.5313V37.4539Z" stroke="#271F0C" stroke-miterlimit="10"/>
<path d="M33.3419 22.7324H22.6582V33.4161H33.3419V22.7324Z" fill="#271F0C"/>
<path d="M18.914 18.6055L37.6733 37.5429" stroke="#271F0C" stroke-miterlimit="10"/>
<path d="M37.0861 18.6055L18.3267 37.5429" stroke="#271F0C" stroke-miterlimit="10"/>
</g>
<defs>
<clipPath id="clip0_37_1381">
<rect x="0.308594" y="0.382812" width="55.3828" height="55.3828" rx="27.6914" fill="white"/>
</clipPath>
</defs>
</svg>
