<svg width="46" height="46" viewBox="0 0 46 46" fill="none" xmlns="http://www.w3.org/2000/svg">
<g clip-path="url(#clip0_90_17)">
<path d="M23 44.8452C35.1295 44.8452 44.9624 35.0123 44.9624 22.8828C44.9624 10.7533 35.1295 0.92041 23 0.92041C10.8705 0.92041 1.0376 10.7533 1.0376 22.8828C1.0376 35.0123 10.8705 44.8452 23 44.8452Z" fill="#E8EEFB" stroke="#271F0C" stroke-miterlimit="10"/>
<path d="M23 37.5548C31.1031 37.5548 37.672 30.9859 37.672 22.8827C37.672 14.7796 31.1031 8.21069 23 8.21069C14.8969 8.21069 8.32797 14.7796 8.32797 22.8827C8.32797 30.9859 14.8969 37.5548 23 37.5548Z" stroke="#271F0C" stroke-miterlimit="10"/>
<path d="M37.672 22.8828H8.32797" stroke="#271F0C" stroke-miterlimit="10"/>
<path d="M23 8.21069V37.5548" stroke="#271F0C" stroke-miterlimit="10"/>
<path d="M23 31.0999C27.5382 31.0999 31.2172 27.4209 31.2172 22.8827C31.2172 18.3445 27.5382 14.6655 23 14.6655C18.4618 14.6655 14.7828 18.3445 14.7828 22.8827C14.7828 27.4209 18.4618 31.0999 23 31.0999Z" fill="#271F0C"/>
</g>
<defs>
<clipPath id="clip0_90_17">
<rect width="45" height="45" fill="white" transform="translate(0.5 0.382812)"/>
</clipPath>
</defs>
</svg>
