<svg width="56" height="56" viewBox="0 0 56 56" fill="none" xmlns="http://www.w3.org/2000/svg">
<g clip-path="url(#clip0_37_1327)">
<rect x="0.308594" width="55.3828" height="55.3828" rx="27.6914" fill="#E0CCCC"/>
<path d="M18.6863 18.2894V10.1494C18.6863 10.1494 21.9118 6.43727 23.2663 4.50348C23.9214 3.56701 26.0437 0.672828 28.1375 0.691496C30.1496 0.709469 32.1356 3.60366 32.7685 4.50348C34.1159 6.43727 36.9994 9.79318 37.3136 10.1494V18.2894H18.6863Z" stroke="#271F0C" stroke-miterlimit="10"/>
<path d="M37.3137 37.0935V45.2335C37.3137 45.2335 34.0881 48.9456 32.7336 50.8794C32.0786 51.8159 29.9563 54.71 27.8625 54.6914C25.8504 54.6734 23.8644 51.7792 23.2315 50.8794C21.884 48.9456 19.0006 45.5897 18.6864 45.2335V37.0935H37.3137Z" stroke="#271F0C" stroke-miterlimit="10"/>
<path d="M37.4021 18.3779H45.5421C45.5421 18.3779 49.2542 21.6035 51.1879 22.958C52.1244 23.613 55.0186 25.7353 54.9999 27.8291C54.982 29.8412 52.0878 31.8272 51.1879 32.4601C49.2542 33.8076 45.8982 36.691 45.5421 37.0052H37.4021V18.3779Z" stroke="#271F0C" stroke-miterlimit="10"/>
<path d="M18.5979 37.0052H10.4579C10.4579 37.0052 6.74584 33.7797 4.81205 32.4252C3.87559 31.7701 0.981399 29.6479 1.00007 27.554C1.01804 25.542 3.91223 23.5559 4.81205 22.923C6.74584 21.5756 10.1018 18.6921 10.4579 18.3779H18.5979V37.0052Z" stroke="#271F0C" stroke-miterlimit="10"/>
<path d="M33.3419 22.3496H22.6582V33.0333H33.3419V22.3496Z" fill="#271F0C"/>
<path d="M18.914 18.2227L37.6733 37.1601" stroke="#271F0C" stroke-miterlimit="10"/>
<path d="M37.0861 18.2227L18.3267 37.1601" stroke="#271F0C" stroke-miterlimit="10"/>
</g>
<defs>
<clipPath id="clip0_37_1327">
<rect x="0.308594" width="55.3828" height="55.3828" rx="27.6914" fill="white"/>
</clipPath>
</defs>
</svg>
